{"title":"Dead Poets Society*1989*[DVD9][PAL][ENG, POL, RUS]","uid":5873783,"size":8399257600,"categoryP":"video","categoryS":"movies_dvdr","magnet":"?xt=urn:btih:c5f8e7cc30f43a22b728d2e60354f048640a68ee&amp;dn=Dead+Poets+Society%2A1989%2A%5BDVD9%5D%5BPAL%5D%5BENG%2C+POL%2C+RUS%5D&amp;tr=udp%3A%2F%2Ftracker.openbittorrent.com%3A80&amp;tr=udp%3A%2F%2Fopen.demonii.com%3A1337&amp;tr=udp%3A%2F%2Ftracker.coppersurfer.tk%3A6969&amp;tr=udp%3A%2F%2Fexodus.desync.com%3A6969","seeders":0,"leechers":1,"uploader":"albedo040","files":1,"time":1286531952,"description":"Dead Poets Society*1989*[DVD9][PAL][ENG, POL, RUS]\n\nGeneral information:\nCountry: USA\nRelease: 2 June 1989\nGenre: Drama\nDirector: Peter Weir\nScreenplay: Tom Schulman\nOriginal Music: Maurice Jarre\nCinematography by: John Seale\nDuration: 2h 02mn\nLanguage: \nSubtitles: \nRating: 8.0/10 - 36348 votes \n\nCast:\nRobin Williams  ...  John Keating  \nRobert Sean Leonard  ...  Neil Perry  \nEthan Hawke  ...  Todd Anderson  \nJosh Charles  ...  Knox Overstreet  \nGale Hansen  ...  Charlie Dalton  \nDylan Kussman  ...  Richard Cameron  \nAllelon Ruggiero  ...  Steven Meeks  \nJames Waterston  ...  Gerard Pitts  \nNorman Lloyd  ...  Mr. Nolan  \nKurtwood Smith  ...  Mr. Perry  \nCarla Belver  ...  Mrs. Perry  \nLeon Pownall  ...  McAllister  \nGeorge Martin  ...  Dr. Hager  \nJoe Aufiery  ...  Chemistry Teacher  \nMatt Carey  ...  Hopkins  \n\nPlot:\nEnglish professor John Keating inspires his students to a love of poetry and to seize the day.\n\nSpecifications:\nGeneral\nFormat                           : MPEG-PS\nOverall bit rate                 : 5 962 Kbps\n\nVideo\nFormat                           : MPEG Video\nFormat version                   : Version 2\nFormat profile                   : Main@Main\nFormat settings, BVOP            : Yes\nFormat settings, Matrix          : Default\nBit rate mode                    : Variable\nBit rate                         : 4 980 Kbps\nWidth                            : 720 pixels\nHeight                           : 576 pixels\nDisplay aspect ratio             : 16:9\nFrame rate                       : 25.000 fps\nStandard                         : PAL\nream size                      : 855 MiB (84%)\n\nAudio 1\nFormat                           : AC-3\nFormat/Info                      : Audio Coding 3\nMode extension                   : CM (complete main)\nBit rate mode                    : Constant\nBit rate                         : 384 Kbps\nChannel(s)                       : 6 channels\nChannel positions                : Front: L C R, Side: L R, LFE\nSampling rate                    : 48.0 KHz\nVideo delay                      : 53ms\nStream size                      : 65.9 MiB (6%)\n\nAudio 2-3\nFormat                           : AC-3\nFormat/Info                      : Audio Coding 3\nMode extension                   : CM (complete main)\nBit rate mode                    : Constant\nBit rate                         : 192 Kbps\nChannel(s)                       : 2 channels\nChannel positions                : Front: L R\nSampling rate                    : 48.0 KHz\nVideo delay                      : 53ms\nStream size                      : 33.0 MiB (3%)\n\nText \nFormat                           : RLE\nFormat/Info                      : Run-length encoding\n","torrent":{"xt":"urn:btih:c5f8e7cc30f43a22b728d2e60354f048640a68ee","amp;dn":"Dead+Poets+Society%2A1989%2A%5BDVD9%5D%5BPAL%5D%5BENG%2C+POL%2C+RUS%5D","amp;tr":["udp%3A%2F%2Ftracker.openbittorrent.com%3A80","udp%3A%2F%2Fopen.demonii.com%3A1337","udp%3A%2F%2Ftracker.coppersurfer.tk%3A6969","udp%3A%2F%2Fexodus.desync.com%3A6969"],"infoHash":"c5f8e7cc30f43a22b728d2e60354f048640a68ee","infoHashBuffer":{"type":"Buffer","data":[197,248,231,204,48,244,58,34,183,40,210,230,3,84,240,72,100,10,104,238]},"announce":[],"urlList":[]}}